<?xml version="1.0" encoding="UTF-8" standalone="no"?>
<svg xmlns="http://www.w3.org/2000/svg" xmlns:svg="http://www.w3.org/2000/svg">

<!--
    Clear: R: 255, G: 255, B: 255
-->

<g data-text="1st Floor" data-font="Noto Mono" data-fontsize="32pt">
<path d="M15.791667,0 L12.125,0 L 12.125,0 L12.125,19.020834 L 12.125,19.020834 C 12.125,20.715279 12.180555,23.222223 12.291667,26.541668 L 12.291667,26.541668 C 11.75,25.944445 10.909722,25.159723 9.770834,24.1875 L 9.770834,24.1875 L6.7083335,21.666668 L 6.7083335,21.666668 L4.6875,24.229168 L 4.6875,24.229168 L12.666667,30.458334 L 12.666667,30.458334 L15.791667,30.458334 Z" style="fill: #000; stroke: none;" transform="translate(0 102) scale(1 -1)" />
<path d="M4.229167,1.0208334 L4.229167,4.479167 L 4.229167,4.479167 C 6.9097223,3.2847223 9.479166,2.6875 11.9375,2.6875 L 11.9375,2.6875 C 15.756946,2.6875 17.666668,3.8125 17.666668,6.0625 L 17.666668,6.0625 C 17.666668,6.8541665 17.32639,7.5416665 16.645834,8.125 L 16.645834,8.125 C 15.965278,8.708333 14.395834,9.444445 11.9375,10.333334 L 11.9375,10.333334 C 8.701389,11.541667 6.6631947,12.649306 5.822917,13.65625 L 5.822917,13.65625 C 4.982639,14.663195 4.5625,15.854167 4.5625,17.229168 L 4.5625,17.229168 C 4.5625,19.118055 5.3368053,20.600695 6.885417,21.677084 L 6.885417,21.677084 C 8.434029,22.753473 10.576389,23.291668 13.3125,23.291668 L 13.3125,23.291668 C 16.0625,23.291668 18.625,22.777779 21,21.75 L 21,21.75 L19.75,18.645834 L 19.75,18.645834 C 17.222223,19.645834 15.006945,20.145834 13.104167,20.145834 L 13.104167,20.145834 C 9.826389,20.145834 8.1875,19.222223 8.1875,17.375 L 8.1875,17.375 C 8.1875,16.527779 8.538195,15.850696 9.239584,15.343751 L 9.239584,15.343751 C 9.940972,14.836806 11.555555,14.131945 14.083334,13.229167 L 14.083334,13.229167 C 17.01389,12.159722 18.961807,11.107639 19.927084,10.072917 L 19.927084,10.072917 C 20.89236,9.038195 21.375,7.770834 21.375,6.2708335 L 21.375,6.2708335 C 21.375,4.1875 20.5625,2.5520835 18.9375,1.3645834 L 18.9375,1.3645834 C 17.3125,0.17708337 15.013889,-0.4166667 12.041667,-0.4166667 L 12.041667,-0.4166667 C 8.597222,-0.4166667 5.993056,0.0625 4.229167,1.0208334 Z" style="fill: #000; stroke: none;" transform="translate(26 102) scale(1 -1)" />
<path d="M21.25,3.125 L21.25,0.25 L 21.25,0.25 C 19.444445,-0.19444448 17.694445,-0.4166667 16,-0.4166667 L 16,-0.4166667 C 10.972222,-0.4166667 8.458334,1.9722223 8.458334,6.75 L 8.458334,6.75 L8.458334,20.020834 L 8.458334,20.020834 L2.8958335,20.020834 L 2.8958335,20.020834 L2.8958335,21.979168 L 2.8958335,21.979168 L8.458334,23 L 8.458334,23 L10.0625,28.979168 L 10.0625,28.979168 L12.25,28.979168 L 12.25,28.979168 L12.25,22.875 L 12.25,22.875 L21.375,22.875 L 21.375,22.875 L21.375,20.020834 L 21.375,20.020834 L12.25,20.020834 L 12.25,20.020834 L12.25,6.75 L 12.25,6.75 C 12.25,4.0416665 13.583333,2.6875 16.25,2.6875 L 16.25,2.6875 C 17.541666,2.6875 19.208334,2.8333333 21.25,3.125 Z" style="fill: #000; stroke: none;" transform="translate(52 102) scale(1 -1)" />
<path d="" style="fill: #000; stroke: none;" transform="translate(78 102) scale(1 -1)" />
<path d="M8.958334,0 L5.0833335,0 L 5.0833335,0 L5.0833335,30.458334 L 5.0833335,30.458334 L22.604168,30.458334 L 22.604168,30.458334 L22.604168,27.041668 L 22.604168,27.041668 L8.958334,27.041668 L 8.958334,27.041668 L8.958334,16.291668 L 8.958334,16.291668 L21.8125,16.291668 L 21.8125,16.291668 L21.8125,12.875 L 21.8125,12.875 L8.958334,12.875 Z" style="fill: #000; stroke: none;" transform="translate(104 102) scale(1 -1)" />
<path d="M11.083334,29.4375 L5.5,29.875 L 5.5,29.875 L5.5,32.416668 L 5.5,32.416668 L14.895834,32.416668 L 14.895834,32.416668 L14.895834,2.9791667 L 14.895834,2.9791667 L22.229168,2.5625 L 22.229168,2.5625 L22.229168,0 L 22.229168,0 L3.9166667,0 L 3.9166667,0 L3.9166667,2.5625 L 3.9166667,2.5625 L11.083334,2.9791667 Z" style="fill: #000; stroke: none;" transform="translate(130 102) scale(1 -1)" />
<path d="M 12.708334,-0.4166667 C 9.708334,-0.4166667 7.239584,0.6631944 5.302084,2.8229167 L 5.302084,2.8229167 C 3.3645835,4.9826393 2.3958335,7.8680553 2.3958335,11.479167 L 2.3958335,11.479167 C 2.3958335,15.131945 3.3368056,18.01389 5.21875,20.125 L 5.21875,20.125 C 7.1006947,22.236113 9.638889,23.291668 12.833334,23.291668 L 12.833334,23.291668 C 15.861112,23.291668 18.340279,22.215279 20.270834,20.0625 L 20.270834,20.0625 C 22.20139,17.909723 23.166668,15.048612 23.166668,11.479167 L 23.166668,11.479167 C 23.166668,7.798611 22.215279,4.8958335 20.3125,2.7708335 L 20.3125,2.7708335 C 18.409723,0.64583325 15.875001,-0.4166667 12.708334,-0.4166667 Z M 12.791667,2.7291667 C 17.097221,2.7291667 19.25,5.6458335 19.25,11.479167 L 19.25,11.479167 C 19.25,17.256945 17.083334,20.145834 12.75,20.145834 L 12.75,20.145834 C 8.458333,20.145834 6.3125,17.256945 6.3125,11.479167 L 6.3125,11.479167 C 6.3125,5.6458335 8.472222,2.7291667 12.791667,2.7291667 Z" style="fill: #000; stroke: none;" transform="translate(156 102) scale(1 -1)" />
<path d="M 12.708334,-0.4166667 C 9.708334,-0.4166667 7.239584,0.6631944 5.302084,2.8229167 L 5.302084,2.8229167 C 3.3645835,4.9826393 2.3958335,7.8680553 2.3958335,11.479167 L 2.3958335,11.479167 C 2.3958335,15.131945 3.3368056,18.01389 5.21875,20.125 L 5.21875,20.125 C 7.1006947,22.236113 9.638889,23.291668 12.833334,23.291668 L 12.833334,23.291668 C 15.861112,23.291668 18.340279,22.215279 20.270834,20.0625 L 20.270834,20.0625 C 22.20139,17.909723 23.166668,15.048612 23.166668,11.479167 L 23.166668,11.479167 C 23.166668,7.798611 22.215279,4.8958335 20.3125,2.7708335 L 20.3125,2.7708335 C 18.409723,0.64583325 15.875001,-0.4166667 12.708334,-0.4166667 Z M 12.791667,2.7291667 C 17.097221,2.7291667 19.25,5.6458335 19.25,11.479167 L 19.25,11.479167 C 19.25,17.256945 17.083334,20.145834 12.75,20.145834 L 12.75,20.145834 C 8.458333,20.145834 6.3125,17.256945 6.3125,11.479167 L 6.3125,11.479167 C 6.3125,5.6458335 8.472222,2.7291667 12.791667,2.7291667 Z" style="fill: #000; stroke: none;" transform="translate(182 102) scale(1 -1)" />
<path d="M22.0625,22.354168 L21.041668,18.895834 L 21.041668,18.895834 C 19.333334,19.520834 17.777779,19.833334 16.375,19.833334 L 16.375,19.833334 C 14.111111,19.833334 12.364584,19.190973 11.135417,17.90625 L 11.135417,17.90625 C 9.90625,16.621529 9.291667,14.763889 9.291667,12.333334 L 9.291667,12.333334 L9.291667,0 L 9.291667,0 L5.5,0 L 5.5,0 L5.5,22.875 L 5.5,22.875 L8.583334,22.875 L 8.583334,22.875 L9.041667,18.6875 L 9.041667,18.6875 L9.208334,18.6875 L 9.208334,18.6875 C 10.263889,20.340279 11.395834,21.520834 12.604167,22.229168 L 12.604167,22.229168 C 13.8125,22.937502 15.298612,23.291668 17.0625,23.291668 L 17.0625,23.291668 C 18.70139,23.291668 20.368055,22.979168 22.0625,22.354168 Z" style="fill: #000; stroke: none;" transform="translate(208 102) scale(1 -1)" />
</g>
</svg>
