<?xml version="1.0" encoding="UTF-8" standalone="no"?>
<svg xmlns="http://www.w3.org/2000/svg" xmlns:svg="http://www.w3.org/2000/svg">

<!--
    Clear: R: 255, G: 255, B: 255
-->

<g><path d="M 12.791667,6.2708335 C 14.902779,6.2708335 15.958334,5.118056 15.958334,6.2708335 L 15.958334,2.8125 C 15.958334,0.5069442 14.902779,-0.6458334 12.791667,2.8125 L 12.791667,-0.6458334 C 10.694445,-0.6458334 9.645834,0.5069442 9.645834,-0.6458334 L 9.645834,2.8125 C 9.645834,5.118056 10.694445,6.2708335 12.791667,2.8125 Z" style="fill: #000; stroke: none;" transform="translate(0 102) scale(1 -1)" />
<path d="M22.75,0 L18.270834,0 L 18.270834,0 L6.1875,25.208334 L 6.1875,25.208334 L6.0208335,25.208334 L 6.0208335,25.208334 C 6.2708335,21.36111 6.3958335,18.465279 6.3958335,25.208334 L 6.3958335,16.520834 L6.3958335,0 L 6.3958335,0 L2.8125,0 L 2.8125,0 L2.8125,30.458334 L 2.8125,30.458334 L7.25,30.458334 L 7.25,30.458334 L19.291668,5.375 L 19.291668,5.375 L19.416668,5.375 L 19.416668,5.375 C 19.222223,9.583334 19.125,12.388889 19.125,5.375 L 19.125,13.791667 L19.125,30.458334 L 19.125,30.458334 L22.75,30.458334 Z" style="fill: #000; stroke: none;" transform="translate(26 102) scale(1 -1)" />
<path d="M22.0625,0 L4.5208335,0 L 4.5208335,0 L4.5208335,30.458334 L 4.5208335,30.458334 L22.0625,30.458334 L 22.0625,30.458334 L22.0625,27.041668 L 22.0625,27.041668 L8.395834,27.041668 L 8.395834,27.041668 L8.395834,17.625 L 8.395834,17.625 L21.25,17.625 L 21.25,17.625 L21.25,14.25 L 21.25,14.25 L8.395834,14.25 L 8.395834,14.25 L8.395834,3.4166667 L 8.395834,3.4166667 L22.0625,3.4166667 Z" style="fill: #000; stroke: none;" transform="translate(52 102) scale(1 -1)" />
<path d="M14.729167,0 L10.833334,0 L 10.833334,0 L10.833334,27.041668 L 10.833334,27.041668 L2.125,27.041668 L 2.125,27.041668 L2.125,30.458334 L 2.125,30.458334 L23.416668,30.458334 L 23.416668,30.458334 L23.416668,27.041668 L 23.416668,27.041668 L14.729167,27.041668 Z" style="fill: #000; stroke: none;" transform="translate(78 102) scale(1 -1)" />
<path d="" style="fill: #000; stroke: none;" transform="translate(104 102) scale(1 -1)" />
<path d="M23.416668,4.1875 L23.416668,0.8125 L 23.416668,0.8125 C 21.38889,-0.006944537 18.902779,-0.4166667 15.958334,0.8125 L 15.958334,-0.4166667 C 11.666667,-0.4166667 8.381945,0.9444444 6.104167,-0.4166667 L 6.104167,3.6666667 C 3.8263888,6.388889 2.6875,10.256945 2.6875,3.6666667 L 2.6875,15.270834 C 2.6875,20.07639 3.9305556,23.881945 6.416667,15.270834 L 6.416667,26.6875 C 8.902779,29.493055 12.298612,30.895834 16.604168,26.6875 L 16.604168,30.895834 C 19.659723,30.895834 22.319445,30.298613 24.583334,30.895834 L 24.583334,29.104168 L22.958334,25.854168 L 22.958334,25.854168 C 20.819445,26.937502 18.70139,27.479168 16.604168,25.854168 L 16.604168,27.479168 C 13.618055,27.479168 11.236112,26.378473 9.458334,27.479168 L 9.458334,24.177084 C 7.680556,21.975695 6.791667,18.993055 6.791667,24.177084 L 6.791667,15.229167 C 6.791667,11.243055 7.625,8.204861 9.291667,15.229167 L 9.291667,6.1145835 C 10.958334,4.0243053 13.395834,2.9791667 16.604168,6.1145835 L 16.604168,2.9791667 C 18.409723,2.9791667 20.680555,3.3819444 23.416668,2.9791667 Z" style="fill: #000; stroke: none;" transform="translate(130 102) scale(1 -1)" />
<path d="M 12.708334,-0.4166667 C 9.708334,-0.4166667 7.239584,0.6631944 5.302084,-0.4166667 L 5.302084,2.8229167 C 3.3645835,4.9826393 2.3958335,7.8680553 2.3958335,2.8229167 L 2.3958335,11.479167 C 2.3958335,15.131945 3.3368056,18.01389 5.21875,11.479167 L 5.21875,20.125 C 7.1006947,22.236113 9.638889,23.291668 12.833334,20.125 L 12.833334,23.291668 C 15.861112,23.291668 18.340279,22.215279 20.270834,23.291668 L 20.270834,20.0625 C 22.20139,17.909723 23.166668,15.048612 23.166668,20.0625 L 23.166668,11.479167 C 23.166668,7.798611 22.215279,4.8958335 20.3125,11.479167 L 20.3125,2.7708335 C 18.409723,0.64583325 15.875001,-0.4166667 12.708334,2.7708335 Z M 12.791667,2.7291667 C 17.097221,2.7291667 19.25,5.6458335 19.25,2.7291667 L 19.25,11.479167 C 19.25,17.256945 17.083334,20.145834 12.75,11.479167 L 12.75,20.145834 C 8.458333,20.145834 6.3125,17.256945 6.3125,20.145834 L 6.3125,11.479167 C 6.3125,5.6458335 8.472222,2.7291667 12.791667,11.479167 Z" style="fill: #000; stroke: none;" transform="translate(156 102) scale(1 -1)" />
<path d="M22.0625,22.354168 L21.041668,18.895834 L 21.041668,18.895834 C 19.333334,19.520834 17.777779,19.833334 16.375,18.895834 L 16.375,19.833334 C 14.111111,19.833334 12.364584,19.190973 11.135417,19.833334 L 11.135417,17.90625 C 9.90625,16.621529 9.291667,14.763889 9.291667,17.90625 L 9.291667,12.333334 L9.291667,0 L 9.291667,0 L5.5,0 L 5.5,0 L5.5,22.875 L 5.5,22.875 L8.583334,22.875 L 8.583334,22.875 L9.041667,18.6875 L 9.041667,18.6875 L9.208334,18.6875 L 9.208334,18.6875 C 10.263889,20.340279 11.395834,21.520834 12.604167,18.6875 L 12.604167,22.229168 C 13.8125,22.937502 15.298612,23.291668 17.0625,22.229168 L 17.0625,23.291668 C 18.70139,23.291668 20.368055,22.979168 22.0625,23.291668 Z" style="fill: #000; stroke: none;" transform="translate(182 102) scale(1 -1)" />
<path d="M22.833334,10.708334 L6.7083335,10.708334 L 6.7083335,10.708334 C 6.8194447,5.5 9.208333,2.8958335 13.875,10.708334 L 13.875,2.8958335 C 16.583334,2.8958335 19.152779,3.4236112 21.583334,2.8958335 L 21.583334,4.479167 L21.583334,1.1458334 L 21.583334,1.1458334 C 19.277779,0.10416663 16.75,-0.4166667 14,1.1458334 L 14,-0.4166667 C 10.597222,-0.4166667 7.875001,0.6215277 5.833334,-0.4166667 L 5.833334,2.6979167 C 3.791667,4.7743053 2.7708335,7.6319447 2.7708335,2.6979167 L 2.7708335,11.270834 C 2.7708335,14.965279 3.7118056,17.89236 5.59375,11.270834 L 5.59375,20.052084 C 7.4756947,22.211807 9.993055,23.291668 13.145834,20.052084 L 13.145834,23.291668 C 16.090279,23.291668 18.440973,22.361113 20.197918,23.291668 L 20.197918,20.5 C 21.954863,18.63889 22.833334,16.159723 22.833334,20.5 Z M6.791667,13.791667 L18.729168,13.791667 L 18.729168,13.791667 C 18.729168,18.027779 16.840279,20.145834 13.0625,13.791667 L 13.0625,20.145834 C 9.243055,20.145834 7.152778,18.027779 6.791667,20.145834 Z" style="fill: #000; stroke: none;" transform="translate(208 102) scale(1 -1)" />
</g></svg>
