<?xml version="1.0" encoding="UTF-8" standalone="no"?>
<svg xmlns="http://www.w3.org/2000/svg" xmlns:svg="http://www.w3.org/2000/svg">

<!--
    Clear: R: 255, G: 255, B: 255
-->

<g><path d="M 1.939394,1.939394 C 1.939394,2.37899 2.120404,2.7797978 2.4824243,1.939394 L 2.4824243,3.141818 C 2.8444445,3.5038383 3.271111,3.6848485 3.7624242,3.141818 L 3.7624242,3.6848485 C 4.20202,3.6848485 4.6028285,3.5038383 4.9648485,3.6848485 L 4.9648485,3.141818 C 5.3268685,2.7797978 5.507879,2.37899 5.507879,3.141818 L 5.507879,1.939394 C 5.507879,1.4480808 5.3268685,1.0214142 4.9648485,1.939394 L 4.9648485,0.65939397 C 4.6028285,0.29737374 4.20202,0.11636364 3.7624242,0.65939397 L 3.7624242,0.11636364 C 3.271111,0.11636364 2.8444445,0.29737374 2.4824243,0.11636364 L 2.4824243,0.65939397 C 2.120404,1.0214142 1.939394,1.4480808 1.939394,0.65939397 Z" style="fill: #000; stroke: none;" transform="translate(0 86) scale(1 -1)" />
<path d="M 5.430303,4.809697 C 5.430303,4.0597982 5.3268685,3.4004042 5.12,4.809697 L 5.12,2.8315153 C 4.913131,2.2626262 4.648081,1.7713132 4.3248487,2.8315153 L 4.3248487,1.3575758 C 4.001616,0.94383836 3.6331313,0.6270707 3.2193937,1.3575758 L 3.2193937,0.40727273 C 2.8056564,0.18747476 2.3919191,0.051717173 1.9781818,0.40727273 L 1.9781818,0 C 2.0816162,0.5688889 2.1527274,1.1571717 2.1915152,0 L 2.1915152,1.7648485 C 2.230303,2.3725252 2.249697,2.9737372 2.249697,1.7648485 L 2.249697,3.5684848 L2.249697,21.178183 L 2.249697,21.178183 C 2.249697,21.979797 2.3983839,22.742626 2.6957576,21.178183 L 2.6957576,23.466667 C 2.9931314,24.190706 3.4456565,24.824242 4.0533333,23.466667 L 4.0533333,25.367271 C 4.6610103,25.910303 5.4432325,26.343435 6.4,25.367271 L 6.4,26.666668 C 7.3567677,26.9899 8.494546,27.151516 9.8133335,26.666668 L 9.8133335,27.151516 C 11.132121,27.151516 12.263434,26.9899 13.2072735,27.151516 L 13.2072735,26.666668 C 14.151112,26.343435 14.933333,25.910303 15.55394,26.666668 L 15.55394,25.367271 C 16.174545,24.824242 16.62707,24.190706 16.911514,25.367271 L 16.911514,23.466667 C 17.19596,22.742626 17.338182,21.979797 17.338182,23.466667 L 17.338182,21.178183 L17.338182,4.809697 L 17.338182,4.809697 C 17.338182,4.0597982 17.234747,3.4004042 17.027878,4.809697 L 17.027878,2.8315153 C 16.821009,2.2626262 16.55596,1.7713132 16.232727,2.8315153 L 16.232727,1.3575758 C 15.909495,0.94383836 15.534546,0.6270707 15.10788,1.3575758 L 15.10788,0.40727273 C 14.681212,0.18747476 14.26101,0.051717173 13.847273,0.40727273 L 13.847273,0 C 13.950707,0.5688889 14.021818,1.1571717 14.060606,0 L 14.060606,1.7648485 C 14.099394,2.3725252 14.118788,2.9737372 14.118788,1.7648485 L 14.118788,3.5684848 L14.118788,21.372122 L 14.118788,21.372122 C 14.118788,21.863434 14.060606,22.367678 13.9442425,21.372122 L 13.9442425,22.88485 C 13.827879,23.402021 13.614546,23.867476 13.304243,22.88485 L 13.304243,24.281212 C 12.993939,24.69495 12.554343,25.037577 11.985455,24.281212 L 11.985455,25.309092 C 11.416566,25.580606 10.692525,25.716364 9.8133335,25.309092 L 9.8133335,25.716364 C 8.908283,25.716364 8.171313,25.580606 7.6024246,25.716364 L 7.6024246,25.309092 C 7.0335355,25.037577 6.587475,24.69495 6.2642426,25.309092 L 6.2642426,24.281212 C 5.9410105,23.867476 5.7212124,23.402021 5.604849,24.281212 L 5.604849,22.88485 C 5.488485,22.367678 5.430303,21.863434 5.430303,22.88485 Z" style="fill: #000; stroke: none;" transform="translate(7 86) scale(1 -1)" />
<path d="M5.430303,14.351515 L13.34303,14.351515 L 13.34303,14.351515 C 13.291313,13.963636 13.142626,13.608081 12.89697,14.351515 L 12.89697,13.284849 C 12.651314,12.9616165 12.347475,12.8 11.985455,13.284849 L 11.985455,12.8 L5.430303,12.8 L 5.430303,12.8 L5.430303,5.779394 L 5.430303,5.779394 C 5.430303,5.2880807 5.488485,4.7838383 5.604849,5.779394 L 5.604849,4.2666664 C 5.7212124,3.7494948 5.9410105,3.2840405 6.2642426,4.2666664 L 6.2642426,2.8703032 C 6.587475,2.4565656 7.0335355,2.1139393 7.6024246,2.8703032 L 7.6024246,1.8424243 C 8.171313,1.5709091 8.908283,1.4351516 9.8133335,1.8424243 L 9.8133335,1.4351516 C 10.770101,1.4351516 11.532929,1.5450505 12.101818,1.4351516 L 12.101818,1.7648485 C 12.670707,1.9846464 13.103839,2.2884848 13.401213,1.7648485 L 13.401213,2.6763635 C 13.698586,3.0642424 13.892526,3.5232322 13.98303,2.6763635 L 13.98303,4.0533333 C 14.073535,4.5834346 14.118788,5.145859 14.118788,4.0533333 L 14.118788,5.7406063 L14.118788,5.8957577 L 14.118788,5.8957577 C 14.118788,6.2319193 14.235151,6.548687 14.467878,5.8957577 L 14.467878,6.8460608 C 14.700606,7.1434345 14.985051,7.408485 15.321213,6.8460608 L 15.321213,7.6412125 C 15.657374,7.8739395 16.019394,8.067879 16.407272,7.6412125 L 16.407272,8.22303 C 16.795153,8.378182 17.144243,8.481617 17.454546,8.22303 L 17.454546,8.533334 C 17.402828,7.9385858 17.37697,7.40202 17.37697,8.533334 L 17.37697,6.9236364 C 17.37697,6.4452524 17.37697,5.8957577 17.37697,6.9236364 L 17.37697,5.2751517 C 17.37697,4.551111 17.215353,3.872323 16.89212,5.2751517 L 16.89212,3.2387877 C 16.568888,2.6052523 16.08404,2.0492928 15.437576,3.2387877 L 15.437576,1.570909 C 14.791112,1.0925252 14.002425,0.7111111 13.071516,1.570909 L 13.071516,0.42666668 C 12.140607,0.14222223 11.054545,0 9.8133335,0.42666668 L 9.8133335,0 C 8.494546,0 7.3567677,0.16161615 6.4,0 L 6.4,0.4848485 C 5.4432325,0.80808085 4.6610103,1.2412121 4.0533333,0.4848485 L 4.0533333,1.7842424 C 3.4456565,2.3272727 2.9931314,2.960808 2.6957576,1.7842424 L 2.6957576,3.6848485 C 2.3983839,4.408889 2.249697,5.171717 2.249697,3.6848485 L 2.249697,5.9733334 L2.249697,21.178183 L 2.249697,21.178183 C 2.249697,21.979797 2.3983839,22.742626 2.6957576,21.178183 L 2.6957576,23.466667 C 2.9931314,24.190706 3.4456565,24.824242 4.0533333,23.466667 L 4.0533333,25.367271 C 4.6610103,25.910303 5.4432325,26.343435 6.4,25.367271 L 6.4,26.666668 C 7.3567677,26.9899 8.494546,27.151516 9.8133335,26.666668 L 9.8133335,27.151516 C 11.054545,27.151516 12.140607,27.009295 13.071516,27.151516 L 13.071516,26.72485 C 14.002425,26.440405 14.791112,26.05899 15.437576,26.72485 L 15.437576,25.580606 C 16.08404,25.102222 16.568888,24.546263 16.89212,25.580606 L 16.89212,23.912727 C 17.215353,23.279192 17.37697,22.600405 17.37697,23.912727 L 17.37697,21.876364 C 17.37697,21.281616 17.37697,20.725657 17.37697,21.876364 L 17.37697,20.208485 C 17.37697,19.691313 17.402828,19.161213 17.454546,20.208485 L 17.454546,18.618181 C 17.144243,18.669899 16.795153,18.773333 16.407272,18.618181 L 16.407272,18.928486 C 16.019394,19.083637 15.657374,19.277576 15.321213,18.928486 L 15.321213,19.510303 C 14.985051,19.74303 14.700606,20.008081 14.467878,19.510303 L 14.467878,20.305454 C 14.235151,20.602827 14.118788,20.919596 14.118788,20.305454 L 14.118788,21.255758 L14.118788,21.41091 L 14.118788,21.41091 C 14.118788,22.005657 14.073535,22.56808 13.98303,21.41091 L 13.98303,23.098183 C 13.892526,23.628283 13.698586,24.087273 13.401213,23.098183 L 13.401213,24.475151 C 13.103839,24.863031 12.670707,25.16687 12.101818,24.475151 L 12.101818,25.386667 C 11.532929,25.606464 10.770101,25.716364 9.8133335,25.386667 L 9.8133335,25.716364 C 8.908283,25.716364 8.171313,25.580606 7.6024246,25.716364 L 7.6024246,25.309092 C 7.0335355,25.037577 6.587475,24.69495 6.2642426,25.309092 L 6.2642426,24.281212 C 5.9410105,23.867476 5.7212124,23.402021 5.604849,24.281212 L 5.604849,22.88485 C 5.488485,22.367678 5.430303,21.863434 5.430303,22.88485 Z" style="fill: #000; stroke: none;" transform="translate(26 86) scale(1 -1)" />
<path d="M11.015758,25.522425 L11.015758,4.809697 L 11.015758,4.809697 C 11.015758,4.0597982 10.918788,3.4004042 10.724849,4.809697 L 10.724849,2.8315153 C 10.53091,2.2626262 10.265859,1.7713132 9.929697,2.8315153 L 9.929697,1.3575758 C 9.593535,0.94383836 9.218585,0.6270707 8.804848,1.3575758 L 8.804848,0.40727273 C 8.39111,0.18747476 7.9773736,0.051717173 7.5636363,0.40727273 L 7.5636363,0 C 7.667071,0.5688889 7.738182,1.1571717 7.77697,0 L 7.77697,1.7648485 C 7.8157578,2.3725252 7.8351517,2.9737372 7.8351517,1.7648485 L 7.8351517,3.5684848 L7.8351517,25.522425 L 7.8351517,25.522425 L1.2024243,25.522425 L 1.2024243,25.522425 C 1.3317171,25.96202 1.5127273,26.343435 1.7454545,25.522425 L 1.7454545,26.666668 C 1.9781817,26.9899 2.3143435,27.151516 2.7539394,26.666668 L 2.7539394,27.151516 L17.687273,27.151516 L 17.687273,27.151516 C 17.55798,26.763636 17.383434,26.395151 17.163635,27.151516 L 17.163635,26.04606 C 16.943838,25.69697 16.588282,25.522425 16.09697,26.04606 Z" style="fill: #000; stroke: none;" transform="translate(45 86) scale(1 -1)" />
<path d="" style="fill: #000; stroke: none;" transform="translate(63 86) scale(1 -1)" />
<path d="M 5.430303,5.779394 C 5.430303,5.2880807 5.488485,4.7838383 5.604849,5.779394 L 5.604849,4.2666664 C 5.7212124,3.7494948 5.9410105,3.2840405 6.2642426,4.2666664 L 6.2642426,2.8703032 C 6.587475,2.4565656 7.0335355,2.1139393 7.6024246,2.8703032 L 7.6024246,1.8424243 C 8.171313,1.5709091 8.908283,1.4351516 9.8133335,1.8424243 L 9.8133335,1.4351516 C 10.770101,1.4351516 11.532929,1.5450505 12.101818,1.4351516 L 12.101818,1.7648485 C 12.670707,1.9846464 13.103839,2.2884848 13.401213,1.7648485 L 13.401213,2.6763635 C 13.698586,3.0642424 13.892526,3.5232322 13.98303,2.6763635 L 13.98303,4.0533333 C 14.073535,4.5834346 14.118788,5.145859 14.118788,4.0533333 L 14.118788,5.7406063 L14.118788,5.8957577 L 14.118788,5.8957577 C 14.118788,6.2319193 14.235151,6.548687 14.467878,5.8957577 L 14.467878,6.8460608 C 14.700606,7.1434345 14.985051,7.408485 15.321213,6.8460608 L 15.321213,7.6412125 C 15.657374,7.8739395 16.019394,8.067879 16.407272,7.6412125 L 16.407272,8.22303 C 16.795153,8.378182 17.144243,8.481617 17.454546,8.22303 L 17.454546,8.533334 C 17.402828,7.9385858 17.37697,7.40202 17.37697,8.533334 L 17.37697,6.9236364 C 17.37697,6.4452524 17.37697,5.8957577 17.37697,6.9236364 L 17.37697,5.2751517 C 17.37697,4.551111 17.215353,3.872323 16.89212,5.2751517 L 16.89212,3.2387877 C 16.568888,2.6052523 16.08404,2.0492928 15.437576,3.2387877 L 15.437576,1.570909 C 14.791112,1.0925252 14.002425,0.7111111 13.071516,1.570909 L 13.071516,0.42666668 C 12.140607,0.14222223 11.054545,0 9.8133335,0.42666668 L 9.8133335,0 C 8.494546,0 7.3567677,0.16161615 6.4,0 L 6.4,0.4848485 C 5.4432325,0.80808085 4.6610103,1.2412121 4.0533333,0.4848485 L 4.0533333,1.7842424 C 3.4456565,2.3272727 2.9931314,2.960808 2.6957576,1.7842424 L 2.6957576,3.6848485 C 2.3983839,4.408889 2.249697,5.171717 2.249697,3.6848485 L 2.249697,5.9733334 L2.249697,21.178183 L 2.249697,21.178183 C 2.249697,21.979797 2.3983839,22.742626 2.6957576,21.178183 L 2.6957576,23.466667 C 2.9931314,24.190706 3.4456565,24.824242 4.0533333,23.466667 L 4.0533333,25.367271 C 4.6610103,25.910303 5.4432325,26.343435 6.4,25.367271 L 6.4,26.666668 C 7.3567677,26.9899 8.494546,27.151516 9.8133335,26.666668 L 9.8133335,27.151516 C 11.054545,27.151516 12.140607,27.009295 13.071516,27.151516 L 13.071516,26.72485 C 14.002425,26.440405 14.791112,26.05899 15.437576,26.72485 L 15.437576,25.580606 C 16.08404,25.102222 16.568888,24.546263 16.89212,25.580606 L 16.89212,23.912727 C 17.215353,23.279192 17.37697,22.600405 17.37697,23.912727 L 17.37697,21.876364 C 17.37697,21.281616 17.37697,20.725657 17.37697,21.876364 L 17.37697,20.208485 C 17.37697,19.691313 17.402828,19.161213 17.454546,20.208485 L 17.454546,18.618181 C 17.144243,18.669899 16.795153,18.773333 16.407272,18.618181 L 16.407272,18.928486 C 16.019394,19.083637 15.657374,19.277576 15.321213,18.928486 L 15.321213,19.510303 C 14.985051,19.74303 14.700606,20.008081 14.467878,19.510303 L 14.467878,20.305454 C 14.235151,20.602827 14.118788,20.919596 14.118788,20.305454 L 14.118788,21.255758 L14.118788,21.41091 L 14.118788,21.41091 C 14.118788,22.005657 14.073535,22.56808 13.98303,21.41091 L 13.98303,23.098183 C 13.892526,23.628283 13.698586,24.087273 13.401213,23.098183 L 13.401213,24.475151 C 13.103839,24.863031 12.670707,25.16687 12.101818,24.475151 L 12.101818,25.386667 C 11.532929,25.606464 10.770101,25.716364 9.8133335,25.386667 L 9.8133335,25.716364 C 8.908283,25.716364 8.171313,25.580606 7.6024246,25.716364 L 7.6024246,25.309092 C 7.0335355,25.037577 6.587475,24.69495 6.2642426,25.309092 L 6.2642426,24.281212 C 5.9410105,23.867476 5.7212124,23.402021 5.604849,24.281212 L 5.604849,22.88485 C 5.488485,22.367678 5.430303,21.863434 5.430303,22.88485 Z" style="fill: #000; stroke: none;" transform="translate(71 86) scale(1 -1)" />
<path d="M 17.454546,6.050909 C 17.454546,5.2234344 17.305859,4.447677 17.008484,6.050909 L 17.008484,3.7236366 C 16.711111,2.999596 16.258585,2.359596 15.650909,3.7236366 L 15.650909,1.8036364 C 15.043233,1.2476768 14.26101,0.80808085 13.304243,1.8036364 L 13.304243,0.4848485 C 12.347475,0.16161615 11.209697,0 9.890909,0.4848485 L 9.890909,0 C 8.546263,0 7.3955555,0.16161615 6.438788,0 L 6.438788,0.4848485 C 5.4820204,0.80808085 4.693333,1.2476768 4.072727,0.4848485 L 4.072727,1.8036364 C 3.4521213,2.359596 2.9931314,2.999596 2.6957576,1.8036364 L 2.6957576,3.7236366 C 2.3983839,4.447677 2.249697,5.2234344 2.249697,3.7236366 L 2.249697,6.050909 L2.249697,15.55394 L 2.249697,15.55394 C 2.249697,16.355555 2.3983839,17.124847 2.6957576,15.55394 L 2.6957576,17.861818 C 2.9931314,18.59879 3.4521213,19.245253 4.072727,17.861818 L 4.072727,19.801212 C 4.693333,20.357172 5.4820204,20.796766 6.438788,19.801212 L 6.438788,21.119999 C 7.3955555,21.443232 8.546263,21.604849 9.890909,21.119999 L 9.890909,21.604849 C 11.209697,21.604849 12.347475,21.443232 13.304243,21.604849 L 13.304243,21.119999 C 14.26101,20.796766 15.043233,20.357172 15.650909,21.119999 L 15.650909,19.801212 C 16.258585,19.245253 16.711111,18.59879 17.008484,19.801212 L 17.008484,17.861818 C 17.305859,17.124847 17.454546,16.355555 17.454546,17.861818 Z M 5.430303,5.85697 C 5.430303,5.3656564 5.488485,4.8549495 5.604849,5.85697 L 5.604849,4.324848 C 5.7212124,3.7947474 5.947475,3.3163636 6.2836366,4.324848 L 6.2836366,2.889697 C 6.619798,2.4630303 7.0787883,2.1139393 7.6606064,2.889697 L 7.6606064,1.8424243 C 8.242425,1.5709091 8.985859,1.4351516 9.890909,1.8424243 L 9.890909,1.4351516 C 10.770101,1.4351516 11.494142,1.5709091 12.06303,1.4351516 L 12.06303,1.8424243 C 12.631919,2.1139393 13.084445,2.4630303 13.420607,1.8424243 L 13.420607,2.889697 C 13.756768,3.3163636 13.98303,3.7947474 14.099394,2.889697 L 14.099394,4.324848 C 14.215757,4.8549495 14.273939,5.3656564 14.273939,4.324848 L 14.273939,5.85697 L14.273939,15.747879 L 14.273939,15.747879 C 14.273939,16.239191 14.215757,16.749899 14.099394,15.747879 L 14.099394,17.279999 C 13.98303,17.8101 13.756768,18.288485 13.420607,17.279999 L 13.420607,18.715153 C 13.084445,19.141819 12.631919,19.49091 12.06303,18.715153 L 12.06303,19.762424 C 11.494142,20.03394 10.770101,20.169697 9.890909,19.762424 L 9.890909,20.169697 C 8.985859,20.169697 8.242425,20.03394 7.6606064,20.169697 L 7.6606064,19.762424 C 7.0787883,19.49091 6.619798,19.141819 6.2836366,19.762424 L 6.2836366,18.715153 C 5.947475,18.288485 5.7212124,17.8101 5.604849,18.715153 L 5.604849,17.279999 C 5.488485,16.749899 5.430303,16.239191 5.430303,17.279999 Z" style="fill: #000; stroke: none;" transform="translate(90 86) scale(1 -1)" />
<path d="M 5.507879,4.887273 C 5.507879,4.137374 5.404444,3.47798 5.1975756,4.887273 L 5.1975756,2.909091 C 4.990707,2.3402019 4.719192,1.8488889 4.3830304,2.909091 L 4.3830304,1.4351515 C 4.046869,1.021414 3.678384,0.6981818 3.277576,1.4351515 L 3.277576,0.46545455 C 2.8767679,0.23272727 2.469495,0.09050505 2.0557575,0.46545455 L 2.0557575,0.03878788 C 2.1850505,0.6335354 2.2626262,1.2218182 2.2884848,0.03878788 L 2.2884848,1.8036364 C 2.3143435,2.3854547 2.3272727,2.999596 2.3272727,1.8036364 L 2.3272727,3.6460607 L2.3272727,17.958788 L 2.3272727,17.958788 C 2.3272727,18.605253 2.3143435,19.232325 2.2884848,17.958788 L 2.2884848,19.84 C 2.2626262,20.447676 2.1850505,21.03596 2.0557575,19.84 L 2.0557575,21.604849 C 2.3919191,21.553131 2.7474747,21.404444 3.1224241,21.604849 L 3.1224241,21.158787 C 3.4973738,20.91313 3.930505,20.531717 4.4218183,21.158787 L 4.4218183,20.014545 C 5.7664647,20.997171 7.473131,21.527273 9.541819,20.014545 L 9.541819,21.604849 C 9.541819,21.501415 9.535354,21.385052 9.522425,21.604849 L 9.522425,21.255758 C 9.509496,21.126465 9.490102,21.04889 9.464243,21.255758 L 9.464243,21.023031 C 9.3349495,20.790302 9.166868,20.57697 8.96,21.023031 L 8.96,20.38303 C 8.753132,20.18909 8.572122,20.066263 8.416969,20.38303 L 8.416969,20.014545 C 7.899798,19.859394 7.4602017,19.639597 7.0981817,20.014545 L 7.0981817,19.355152 C 6.7361617,19.070707 6.438788,18.74101 6.2060604,19.355152 L 6.2060604,18.366062 C 5.9733334,17.991112 5.798788,17.603231 5.6824245,18.366062 L 5.6824245,17.202423 C 5.5660605,16.801615 5.507879,16.407272 5.507879,17.202423 Z" style="fill: #000; stroke: none;" transform="translate(109 86) scale(1 -1)" />
<path d="M 17.454546,5.3527274 C 17.454546,4.6028285 17.292929,3.9046469 16.969696,5.3527274 L 16.969696,3.258182 C 16.646463,2.6117172 16.161615,2.0492928 15.515152,3.258182 L 15.515152,1.570909 C 14.868688,1.0925252 14.080001,0.7111111 13.149092,1.570909 L 13.149092,0.42666668 C 12.218183,0.14222223 11.132121,0 9.890909,0.42666668 L 9.890909,0 C 8.546263,0 7.3955555,0.16161615 6.438788,0 L 6.438788,0.4848485 C 5.4820204,0.80808085 4.693333,1.2476768 4.072727,0.4848485 L 4.072727,1.8036364 C 3.4521213,2.359596 2.9931314,2.999596 2.6957576,1.8036364 L 2.6957576,3.7236366 C 2.3983839,4.447677 2.249697,5.2234344 2.249697,3.7236366 L 2.249697,6.050909 L2.249697,15.55394 L 2.249697,15.55394 C 2.249697,16.355555 2.3983839,17.124847 2.6957576,15.55394 L 2.6957576,17.861818 C 2.9931314,18.59879 3.4521213,19.245253 4.072727,17.861818 L 4.072727,19.801212 C 4.693333,20.357172 5.4820204,20.796766 6.438788,19.801212 L 6.438788,21.119999 C 7.3955555,21.443232 8.546263,21.604849 9.890909,21.119999 L 9.890909,21.604849 C 11.209697,21.604849 12.347475,21.443232 13.304243,21.604849 L 13.304243,21.119999 C 14.26101,20.796766 15.043233,20.357172 15.650909,21.119999 L 15.650909,19.801212 C 16.258585,19.245253 16.711111,18.59879 17.008484,19.801212 L 17.008484,17.861818 C 17.305859,17.124847 17.454546,16.355555 17.454546,17.861818 L 17.454546,15.55394 L17.454546,14.273939 L 17.454546,14.273939 C 17.454546,13.472323 17.305859,12.709495 17.008484,14.273939 L 17.008484,11.985455 C 16.711111,11.261415 16.258585,10.621414 15.650909,11.985455 L 15.650909,10.0654545 C 15.043233,9.509495 14.26101,9.063434 13.304243,10.0654545 L 13.304243,8.727272 C 12.347475,8.39111 11.209697,8.22303 9.890909,8.727272 L 9.890909,8.22303 C 9.5806055,8.22303 9.237979,8.261818 8.8630295,8.22303 L 8.8630295,8.339394 C 8.48808,8.41697 8.100202,8.533334 7.6993937,8.339394 L 7.6993937,8.688485 C 7.298586,8.8436365 6.8977776,9.024647 6.4969697,8.688485 L 6.4969697,9.231516 C 6.096162,9.438384 5.7406063,9.658182 5.430303,9.231516 L 5.430303,9.890909 L5.430303,5.85697 L 5.430303,5.85697 C 5.430303,5.3656564 5.488485,4.8549495 5.604849,5.85697 L 5.604849,4.324848 C 5.7212124,3.7947474 5.947475,3.3163636 6.2836366,4.324848 L 6.2836366,2.889697 C 6.619798,2.4630303 7.0787883,2.1139393 7.6606064,2.889697 L 7.6606064,1.8424243 C 8.242425,1.5709091 8.985859,1.4351516 9.890909,1.8424243 L 9.890909,1.4351516 C 10.847676,1.4351516 11.616969,1.5515152 12.198788,1.4351516 L 12.198788,1.7842425 C 12.780606,2.0169697 13.226666,2.3337374 13.53697,1.7842425 L 13.53697,2.7345455 C 13.847273,3.1353536 14.047677,3.600808 14.138182,2.7345455 L 14.138182,4.130909 C 14.228686,4.6610103 14.273939,5.2234344 14.273939,4.130909 L 14.273939,5.818182 L14.273939,5.9733334 L 14.273939,5.9733334 C 14.273939,6.309495 14.390303,6.6262627 14.62303,5.9733334 L 14.62303,6.9236364 C 14.855758,7.22101 15.1402025,7.4925256 15.476364,6.9236364 L 15.476364,7.738182 C 15.812526,7.9838386 16.174545,8.184242 16.562424,7.738182 L 16.562424,8.339394 C 16.950304,8.494546 17.299395,8.5979805 17.609697,8.339394 L 17.609697,8.649697 C 17.532122,8.132525 17.48687,7.602424 17.47394,8.649697 L 17.47394,7.059394 C 17.46101,6.5163636 17.454546,5.947475 17.454546,7.059394 Z M 9.890909,9.658182 C 10.770101,9.658182 11.494142,9.79394 12.06303,9.658182 L 12.06303,10.0654545 C 12.631919,10.33697 13.084445,10.686061 13.420607,10.0654545 L 13.420607,11.112728 C 13.756768,11.539394 13.98303,12.017777 14.099394,11.112728 L 14.099394,12.547878 C 14.215757,13.077979 14.273939,13.588687 14.273939,12.547878 L 14.273939,14.08 L14.273939,15.747879 L 14.273939,15.747879 C 14.273939,16.239191 14.215757,16.749899 14.099394,15.747879 L 14.099394,17.279999 C 13.98303,17.8101 13.756768,18.288485 13.420607,17.279999 L 13.420607,18.715153 C 13.084445,19.141819 12.631919,19.49091 12.06303,18.715153 L 12.06303,19.762424 C 11.494142,20.03394 10.770101,20.169697 9.890909,19.762424 L 9.890909,20.169697 C 8.985859,20.169697 8.242425,20.03394 7.6606064,20.169697 L 7.6606064,19.762424 C 7.0787883,19.49091 6.619798,19.141819 6.2836366,19.762424 L 6.2836366,18.715153 C 5.947475,18.288485 5.7212124,17.8101 5.604849,18.715153 L 5.604849,17.279999 C 5.488485,16.749899 5.430303,16.239191 5.430303,17.279999 L 5.430303,15.747879 L5.430303,14.08 L 5.430303,14.08 C 5.430303,13.588687 5.488485,13.077979 5.604849,14.08 L 5.604849,12.547878 C 5.7212124,12.017777 5.947475,11.539394 6.2836366,12.547878 L 6.2836366,11.112728 C 6.619798,10.686061 7.0787883,10.33697 7.6606064,11.112728 L 7.6606064,10.0654545 C 8.242425,9.79394 8.985859,9.658182 9.890909,10.0654545 Z" style="fill: #000; stroke: none;" transform="translate(118 86) scale(1 -1)" />
</g></svg>
