<?xml version="1.0" encoding="UTF-8" standalone="no"?>
<svg xmlns="http://www.w3.org/2000/svg" xmlns:svg="http://www.w3.org/2000/svg">

<!--
    Clear: R: 255, G: 255, B: 255
-->

<g data-text="1st Floor" data-font="SNT Anouvong" data-fontsize="32pt">
<path d="M 6.2448487,22.574545 C 5.2622223,21.824646 4.39596,21.449697 3.6460607,21.449697 L 3.6460607,21.449697 C 2.9220202,21.449697 2.1591918,21.721212 1.3575758,22.264242 L 1.3575758,22.264242 L6.632727,26.104242 L 6.632727,26.104242 C 7.149899,26.466263 7.621818,26.718384 8.048485,26.860607 L 8.048485,26.860607 C 8.475152,27.002829 8.96,27.099798 9.503031,27.151516 L 9.503031,27.151516 L9.503031,4.809697 L 9.503031,4.809697 C 9.503031,4.0597982 9.399596,3.4004042 9.192728,2.8315153 L 9.192728,2.8315153 C 8.985859,2.2626262 8.714343,1.7713132 8.378181,1.3575758 L 8.378181,1.3575758 C 8.04202,0.94383836 7.660606,0.6270707 7.233939,0.40727273 L 7.233939,0.40727273 C 6.8072724,0.18747476 6.3870707,0.051717173 5.9733334,0 L 5.9733334,0 C 6.0767674,0.5688889 6.1478786,1.1571717 6.1866665,1.7648485 L 6.1866665,1.7648485 C 6.225455,2.3725252 6.2448487,2.9737372 6.2448487,3.5684848 Z" style="fill: #000; stroke: none;" transform="translate(0 86) scale(1 -1)" />
<path d="M 9.890909,1.4351516 C 10.770101,1.4351516 11.494142,1.5709091 12.06303,1.8424243 L 12.06303,1.8424243 C 12.631919,2.1139393 13.084445,2.4630303 13.420607,2.889697 L 13.420607,2.889697 C 13.756768,3.3163636 13.98303,3.7947474 14.099394,4.324848 L 14.099394,4.324848 C 14.215757,4.8549495 14.273939,5.3656564 14.273939,5.85697 L 14.273939,5.85697 L14.273939,7.718788 L 14.273939,7.718788 C 14.273939,8.05495 14.099394,8.352323 13.750303,8.6109085 L 13.750303,8.6109085 C 13.401212,8.869494 12.935758,9.108687 12.353939,9.3284855 L 12.353939,9.3284855 C 11.772121,9.548284 11.119192,9.742223 10.395151,9.910303 L 10.395151,9.910303 C 9.671111,10.078383 8.921212,10.25293 8.145454,10.43394 L 8.145454,10.43394 C 7.3955555,10.61495 6.671515,10.795959 5.9733334,10.97697 L 5.9733334,10.97697 C 5.2751517,11.15798 4.648081,11.345454 4.092121,11.539394 L 4.092121,11.539394 C 3.5361614,11.733334 3.090101,11.927273 2.7539394,12.121212 L 2.7539394,12.121212 C 2.4177778,12.315151 2.249697,12.515555 2.249697,12.7224245 L 2.249697,12.7224245 L2.249697,15.55394 L 2.249697,15.55394 C 2.249697,16.355555 2.3983839,17.124847 2.6957576,17.861818 L 2.6957576,17.861818 C 2.9931314,18.59879 3.4521213,19.245253 4.072727,19.801212 L 4.072727,19.801212 C 4.693333,20.357172 5.4820204,20.796766 6.438788,21.119999 L 6.438788,21.119999 C 7.3955555,21.443232 8.546263,21.604849 9.890909,21.604849 L 9.890909,21.604849 C 11.132121,21.604849 12.218183,21.462626 13.149092,21.17818 L 13.149092,21.17818 C 14.080001,20.893736 14.868688,20.512323 15.515152,20.03394 L 15.515152,20.03394 C 16.161615,19.555555 16.646463,18.986668 16.969696,18.327274 L 16.969696,18.327274 C 17.292929,17.66788 17.454546,16.976162 17.454546,16.252121 L 17.454546,16.252121 C 17.454546,15.657373 17.46101,15.094949 17.47394,14.564848 L 17.47394,14.564848 C 17.48687,14.034747 17.532122,13.511111 17.609697,12.993939 L 17.609697,12.993939 C 17.299395,13.045656 16.950304,13.149091 16.562424,13.304243 L 16.562424,13.304243 C 16.174545,13.459394 15.812526,13.653334 15.476364,13.886061 L 15.476364,13.886061 C 15.1402025,14.118788 14.855758,14.383838 14.62303,14.681211 L 14.62303,14.681211 C 14.390303,14.978585 14.273939,15.295354 14.273939,15.6315155 L 14.273939,15.6315155 L14.273939,15.786667 L 14.273939,15.786667 C 14.273939,16.381414 14.228686,16.943838 14.138182,17.473938 L 14.138182,17.473938 C 14.047677,18.00404 13.847273,18.469496 13.53697,18.870304 L 13.53697,18.870304 C 13.226666,19.271112 12.780606,19.58788 12.198788,19.820606 L 12.198788,19.820606 C 11.616969,20.053333 10.847676,20.169697 9.890909,20.169697 L 9.890909,20.169697 C 8.985859,20.169697 8.242425,20.03394 7.6606064,19.762424 L 7.6606064,19.762424 C 7.0787883,19.49091 6.619798,19.141819 6.2836366,18.715153 L 6.2836366,18.715153 C 5.947475,18.288485 5.7212124,17.8101 5.604849,17.279999 L 5.604849,17.279999 C 5.488485,16.749899 5.430303,16.239191 5.430303,15.747879 L 5.430303,15.747879 L5.430303,13.886061 L 5.430303,13.886061 C 5.430303,13.549899 5.6048484,13.252525 5.9539394,12.993939 L 5.9539394,12.993939 C 6.3030305,12.735353 6.7684846,12.502626 7.3503027,12.295757 L 7.3503027,12.295757 C 7.932121,12.088889 8.585051,11.89495 9.309091,11.71394 L 9.309091,11.71394 C 10.033131,11.532929 10.7830305,11.351919 11.558788,11.170909 L 11.558788,11.170909 C 12.282828,10.989899 13.000404,10.808888 13.711515,10.627878 L 13.711515,10.627878 C 14.4226265,10.446868 15.056162,10.259394 15.612122,10.0654545 L 15.612122,10.0654545 C 16.168081,9.871515 16.614141,9.684041 16.950302,9.503031 L 16.950302,9.503031 C 17.286465,9.322021 17.454546,9.14101 17.454546,8.96 L 17.454546,8.96 L17.454546,6.050909 L 17.454546,6.050909 C 17.454546,5.2234344 17.305859,4.447677 17.008484,3.7236366 L 17.008484,3.7236366 C 16.711111,2.999596 16.258585,2.359596 15.650909,1.8036364 L 15.650909,1.8036364 C 15.043233,1.2476768 14.26101,0.80808085 13.304243,0.4848485 L 13.304243,0.4848485 C 12.347475,0.16161615 11.209697,0 9.890909,0 L 9.890909,0 C 8.649697,0 7.550707,0.14222223 6.5939393,0.42666668 L 6.5939393,0.42666668 C 5.6371717,0.7111111 4.8355556,1.0925252 4.1890907,1.570909 L 4.1890907,1.570909 C 3.5426261,2.0492928 3.057778,2.6117172 2.7345455,3.258182 L 2.7345455,3.258182 C 2.411313,3.9046469 2.249697,4.6028285 2.249697,5.3527274 L 2.249697,5.3527274 C 2.249697,5.947475 2.249697,6.5034347 2.249697,7.020606 L 2.249697,7.020606 C 2.249697,7.537778 2.2238383,8.080809 2.1721213,8.649697 L 2.1721213,8.649697 C 2.4824243,8.5979805 2.8250506,8.494546 3.2,8.339394 L 3.2,8.339394 C 3.5749495,8.184242 3.9240406,7.9838386 4.247273,7.738182 L 4.247273,7.738182 C 4.570505,7.4925256 4.848485,7.22101 5.081212,6.9236364 L 5.081212,6.9236364 C 5.3139396,6.6262627 5.430303,6.309495 5.430303,5.9733334 L 5.430303,5.9733334 L5.430303,5.818182 L 5.430303,5.818182 C 5.430303,5.2234344 5.4820204,4.6610103 5.585455,4.130909 L 5.585455,4.130909 C 5.688889,3.600808 5.8957577,3.1353536 6.2060604,2.7345455 L 6.2060604,2.7345455 C 6.5163636,2.3337374 6.962424,2.0169697 7.544242,1.7842425 L 7.544242,1.7842425 C 8.1260605,1.5515152 8.908282,1.4351516 9.890909,1.4351516 Z" style="fill: #000; stroke: none;" transform="translate(12 86) scale(1 -1)" />
<path d="M7.951515,19.975758 L7.951515,4.887273 L 7.951515,4.887273 C 7.951515,4.111515 7.848081,3.4327273 7.6412125,2.8509092 L 7.6412125,2.8509092 C 7.434344,2.269091 7.1628284,1.7713132 6.826667,1.3575758 L 6.826667,1.3575758 C 6.490505,0.94383836 6.115556,0.6270707 5.7018185,0.40727273 L 5.7018185,0.40727273 C 5.2880807,0.18747476 4.8743434,0.051717173 4.460606,0 L 4.460606,0 C 4.56404,0.5947475 4.6351514,1.1894948 4.6739397,1.7842424 L 4.6739397,1.7842424 C 4.7127275,2.37899 4.7321215,2.999596 4.7321215,3.6460607 L 4.7321215,3.6460607 L4.7321215,19.975758 L 4.7321215,19.975758 L0.42666668,19.975758 L 0.42666668,19.975758 C 0.5559596,20.415354 0.7369697,20.796766 0.969697,21.119999 L 0.969697,21.119999 C 1.2024243,21.443232 1.5385859,21.604849 1.9781818,21.604849 L 1.9781818,21.604849 L4.7321215,21.604849 L 4.7321215,21.604849 L4.7321215,27.500607 L 4.7321215,27.500607 C 4.7321215,28.276363 4.8355556,28.95515 5.042424,29.536968 L 5.042424,29.536968 C 5.249293,30.118788 5.520808,30.610102 5.85697,31.01091 L 5.85697,31.01091 C 6.1931314,31.411718 6.568081,31.728485 6.981818,31.961212 L 6.981818,31.961212 C 7.3955555,32.19394 7.822222,32.336163 8.261818,32.38788 L 8.261818,32.38788 C 8.158383,31.79313 8.080808,31.185455 8.029091,30.56485 L 8.029091,30.56485 C 7.9773736,29.944242 7.951515,29.336565 7.951515,28.741817 L 7.951515,28.741817 L7.951515,21.604849 L 7.951515,21.604849 L12.256969,21.604849 L 12.256969,21.604849 C 12.127677,21.21697 11.940202,20.848486 11.694546,20.499393 L 11.694546,20.499393 C 11.448889,20.150303 11.106262,19.975758 10.666667,19.975758 Z" style="fill: #000; stroke: none;" transform="translate(31 86) scale(1 -1)" />
<path d="" style="fill: #000; stroke: none;" transform="translate(42 86) scale(1 -1)" />
<path d="M5.430303,14.351515 L13.34303,14.351515 L 13.34303,14.351515 C 13.291313,13.963636 13.142626,13.608081 12.89697,13.284849 L 12.89697,13.284849 C 12.651314,12.9616165 12.347475,12.8 11.985455,12.8 L 11.985455,12.8 L5.430303,12.8 L 5.430303,12.8 L5.430303,4.809697 L 5.430303,4.809697 C 5.430303,4.0597982 5.3333335,3.4004042 5.139394,2.8315153 L 5.139394,2.8315153 C 4.9454546,2.2626262 4.680404,1.7713132 4.3442426,1.3575758 L 4.3442426,1.3575758 C 4.008081,0.94383836 3.6331313,0.6270707 3.2193937,0.40727273 L 3.2193937,0.40727273 C 2.8056564,0.18747476 2.3919191,0.051717173 1.9781818,0 L 1.9781818,0 C 2.0816162,0.5688889 2.1527274,1.1571717 2.1915152,1.7648485 L 2.1915152,1.7648485 C 2.230303,2.3725252 2.249697,2.9737372 2.249697,3.5684848 L 2.249697,3.5684848 L2.249697,21.178183 L 2.249697,21.178183 C 2.249697,21.979797 2.3983839,22.742626 2.6957576,23.466667 L 2.6957576,23.466667 C 2.9931314,24.190706 3.4456565,24.824242 4.0533333,25.367271 L 4.0533333,25.367271 C 4.6610103,25.910303 5.4432325,26.343435 6.4,26.666668 L 6.4,26.666668 C 7.3567677,26.9899 8.494546,27.151516 9.8133335,27.151516 L 9.8133335,27.151516 C 11.054545,27.151516 12.140607,27.009295 13.071516,26.72485 L 13.071516,26.72485 C 14.002425,26.440405 14.791112,26.05899 15.437576,25.580606 L 15.437576,25.580606 C 16.08404,25.102222 16.568888,24.546263 16.89212,23.912727 L 16.89212,23.912727 C 17.215353,23.279192 17.37697,22.600405 17.37697,21.876364 L 17.37697,21.876364 C 17.37697,21.281616 17.37697,20.725657 17.37697,20.208485 L 17.37697,20.208485 C 17.37697,19.691313 17.402828,19.161213 17.454546,18.618181 L 17.454546,18.618181 C 17.144243,18.669899 16.795153,18.773333 16.407272,18.928486 L 16.407272,18.928486 C 16.019394,19.083637 15.657374,19.277576 15.321213,19.510303 L 15.321213,19.510303 C 14.985051,19.74303 14.700606,20.008081 14.467878,20.305454 L 14.467878,20.305454 C 14.235151,20.602827 14.118788,20.919596 14.118788,21.255758 L 14.118788,21.255758 L14.118788,21.41091 L 14.118788,21.41091 C 14.118788,22.005657 14.073535,22.56808 13.98303,23.098183 L 13.98303,23.098183 C 13.892526,23.628283 13.698586,24.087273 13.401213,24.475151 L 13.401213,24.475151 C 13.103839,24.863031 12.670707,25.16687 12.101818,25.386667 L 12.101818,25.386667 C 11.532929,25.606464 10.770101,25.716364 9.8133335,25.716364 L 9.8133335,25.716364 C 8.908283,25.716364 8.177778,25.580606 7.6218185,25.309092 L 7.6218185,25.309092 C 7.065859,25.037577 6.619798,24.69495 6.2836366,24.281212 L 6.2836366,24.281212 C 5.947475,23.867476 5.7212124,23.402021 5.604849,22.88485 L 5.604849,22.88485 C 5.488485,22.367678 5.430303,21.863434 5.430303,21.372122 Z" style="fill: #000; stroke: none;" transform="translate(50 86) scale(1 -1)" />
<path d="M 5.5854545,4.887273 C 5.5854545,4.111515 5.48202,3.4327273 5.2751513,2.8509092 L 5.2751513,2.8509092 C 5.0682826,2.269091 4.7967677,1.7713132 4.460606,1.3575758 L 4.460606,1.3575758 C 4.1244445,0.94383836 3.7430303,0.6270707 3.3163638,0.40727273 L 3.3163638,0.40727273 C 2.889697,0.18747476 2.469495,0.051717173 2.0557575,0 L 2.0557575,0 C 2.1591918,0.5947475 2.230303,1.1894948 2.269091,1.7842424 L 2.269091,1.7842424 C 2.3078787,2.37899 2.3272727,2.999596 2.3272727,3.6460607 L 2.3272727,3.6460607 L2.3272727,27.539394 L 2.3272727,27.539394 C 2.3272727,28.315151 2.430707,28.993938 2.6375756,29.575756 L 2.6375756,29.575756 C 2.8444445,30.157576 3.1159596,30.64889 3.4521213,31.049698 L 3.4521213,31.049698 C 3.7882829,31.450506 4.1632323,31.767273 4.5769696,32 L 4.5769696,32 C 4.990707,32.232727 5.4173737,32.37495 5.85697,32.426666 L 5.85697,32.426666 C 5.7535353,31.831919 5.682424,31.224243 5.643636,30.603638 L 5.643636,30.603638 C 5.6048484,29.98303 5.5854545,29.375353 5.5854545,28.780605 Z" style="fill: #000; stroke: none;" transform="translate(68 86) scale(1 -1)" />
<path d="M 17.454546,6.050909 C 17.454546,5.2234344 17.305859,4.447677 17.008484,3.7236366 L 17.008484,3.7236366 C 16.711111,2.999596 16.258585,2.359596 15.650909,1.8036364 L 15.650909,1.8036364 C 15.043233,1.2476768 14.26101,0.80808085 13.304243,0.4848485 L 13.304243,0.4848485 C 12.347475,0.16161615 11.209697,0 9.890909,0 L 9.890909,0 C 8.546263,0 7.3955555,0.16161615 6.438788,0.4848485 L 6.438788,0.4848485 C 5.4820204,0.80808085 4.693333,1.2476768 4.072727,1.8036364 L 4.072727,1.8036364 C 3.4521213,2.359596 2.9931314,2.999596 2.6957576,3.7236366 L 2.6957576,3.7236366 C 2.3983839,4.447677 2.249697,5.2234344 2.249697,6.050909 L 2.249697,6.050909 L2.249697,15.55394 L 2.249697,15.55394 C 2.249697,16.355555 2.3983839,17.124847 2.6957576,17.861818 L 2.6957576,17.861818 C 2.9931314,18.59879 3.4521213,19.245253 4.072727,19.801212 L 4.072727,19.801212 C 4.693333,20.357172 5.4820204,20.796766 6.438788,21.119999 L 6.438788,21.119999 C 7.3955555,21.443232 8.546263,21.604849 9.890909,21.604849 L 9.890909,21.604849 C 11.209697,21.604849 12.347475,21.443232 13.304243,21.119999 L 13.304243,21.119999 C 14.26101,20.796766 15.043233,20.357172 15.650909,19.801212 L 15.650909,19.801212 C 16.258585,19.245253 16.711111,18.59879 17.008484,17.861818 L 17.008484,17.861818 C 17.305859,17.124847 17.454546,16.355555 17.454546,15.55394 Z M 5.430303,5.85697 C 5.430303,5.3656564 5.488485,4.8549495 5.604849,4.324848 L 5.604849,4.324848 C 5.7212124,3.7947474 5.947475,3.3163636 6.2836366,2.889697 L 6.2836366,2.889697 C 6.619798,2.4630303 7.0787883,2.1139393 7.6606064,1.8424243 L 7.6606064,1.8424243 C 8.242425,1.5709091 8.985859,1.4351516 9.890909,1.4351516 L 9.890909,1.4351516 C 10.770101,1.4351516 11.494142,1.5709091 12.06303,1.8424243 L 12.06303,1.8424243 C 12.631919,2.1139393 13.084445,2.4630303 13.420607,2.889697 L 13.420607,2.889697 C 13.756768,3.3163636 13.98303,3.7947474 14.099394,4.324848 L 14.099394,4.324848 C 14.215757,4.8549495 14.273939,5.3656564 14.273939,5.85697 L 14.273939,5.85697 L14.273939,15.747879 L 14.273939,15.747879 C 14.273939,16.239191 14.215757,16.749899 14.099394,17.279999 L 14.099394,17.279999 C 13.98303,17.8101 13.756768,18.288485 13.420607,18.715153 L 13.420607,18.715153 C 13.084445,19.141819 12.631919,19.49091 12.06303,19.762424 L 12.06303,19.762424 C 11.494142,20.03394 10.770101,20.169697 9.890909,20.169697 L 9.890909,20.169697 C 8.985859,20.169697 8.242425,20.03394 7.6606064,19.762424 L 7.6606064,19.762424 C 7.0787883,19.49091 6.619798,19.141819 6.2836366,18.715153 L 6.2836366,18.715153 C 5.947475,18.288485 5.7212124,17.8101 5.604849,17.279999 L 5.604849,17.279999 C 5.488485,16.749899 5.430303,16.239191 5.430303,15.747879 Z" style="fill: #000; stroke: none;" transform="translate(76 86) scale(1 -1)" />
<path d="M 17.454546,6.050909 C 17.454546,5.2234344 17.305859,4.447677 17.008484,3.7236366 L 17.008484,3.7236366 C 16.711111,2.999596 16.258585,2.359596 15.650909,1.8036364 L 15.650909,1.8036364 C 15.043233,1.2476768 14.26101,0.80808085 13.304243,0.4848485 L 13.304243,0.4848485 C 12.347475,0.16161615 11.209697,0 9.890909,0 L 9.890909,0 C 8.546263,0 7.3955555,0.16161615 6.438788,0.4848485 L 6.438788,0.4848485 C 5.4820204,0.80808085 4.693333,1.2476768 4.072727,1.8036364 L 4.072727,1.8036364 C 3.4521213,2.359596 2.9931314,2.999596 2.6957576,3.7236366 L 2.6957576,3.7236366 C 2.3983839,4.447677 2.249697,5.2234344 2.249697,6.050909 L 2.249697,6.050909 L2.249697,15.55394 L 2.249697,15.55394 C 2.249697,16.355555 2.3983839,17.124847 2.6957576,17.861818 L 2.6957576,17.861818 C 2.9931314,18.59879 3.4521213,19.245253 4.072727,19.801212 L 4.072727,19.801212 C 4.693333,20.357172 5.4820204,20.796766 6.438788,21.119999 L 6.438788,21.119999 C 7.3955555,21.443232 8.546263,21.604849 9.890909,21.604849 L 9.890909,21.604849 C 11.209697,21.604849 12.347475,21.443232 13.304243,21.119999 L 13.304243,21.119999 C 14.26101,20.796766 15.043233,20.357172 15.650909,19.801212 L 15.650909,19.801212 C 16.258585,19.245253 16.711111,18.59879 17.008484,17.861818 L 17.008484,17.861818 C 17.305859,17.124847 17.454546,16.355555 17.454546,15.55394 Z M 5.430303,5.85697 C 5.430303,5.3656564 5.488485,4.8549495 5.604849,4.324848 L 5.604849,4.324848 C 5.7212124,3.7947474 5.947475,3.3163636 6.2836366,2.889697 L 6.2836366,2.889697 C 6.619798,2.4630303 7.0787883,2.1139393 7.6606064,1.8424243 L 7.6606064,1.8424243 C 8.242425,1.5709091 8.985859,1.4351516 9.890909,1.4351516 L 9.890909,1.4351516 C 10.770101,1.4351516 11.494142,1.5709091 12.06303,1.8424243 L 12.06303,1.8424243 C 12.631919,2.1139393 13.084445,2.4630303 13.420607,2.889697 L 13.420607,2.889697 C 13.756768,3.3163636 13.98303,3.7947474 14.099394,4.324848 L 14.099394,4.324848 C 14.215757,4.8549495 14.273939,5.3656564 14.273939,5.85697 L 14.273939,5.85697 L14.273939,15.747879 L 14.273939,15.747879 C 14.273939,16.239191 14.215757,16.749899 14.099394,17.279999 L 14.099394,17.279999 C 13.98303,17.8101 13.756768,18.288485 13.420607,18.715153 L 13.420607,18.715153 C 13.084445,19.141819 12.631919,19.49091 12.06303,19.762424 L 12.06303,19.762424 C 11.494142,20.03394 10.770101,20.169697 9.890909,20.169697 L 9.890909,20.169697 C 8.985859,20.169697 8.242425,20.03394 7.6606064,19.762424 L 7.6606064,19.762424 C 7.0787883,19.49091 6.619798,19.141819 6.2836366,18.715153 L 6.2836366,18.715153 C 5.947475,18.288485 5.7212124,17.8101 5.604849,17.279999 L 5.604849,17.279999 C 5.488485,16.749899 5.430303,16.239191 5.430303,15.747879 Z" style="fill: #000; stroke: none;" transform="translate(95 86) scale(1 -1)" />
<path d="M 5.507879,4.887273 C 5.507879,4.137374 5.404444,3.47798 5.1975756,2.909091 L 5.1975756,2.909091 C 4.990707,2.3402019 4.719192,1.8488889 4.3830304,1.4351515 L 4.3830304,1.4351515 C 4.046869,1.021414 3.678384,0.6981818 3.277576,0.46545455 L 3.277576,0.46545455 C 2.8767679,0.23272727 2.469495,0.09050505 2.0557575,0.03878788 L 2.0557575,0.03878788 C 2.1850505,0.6335354 2.2626262,1.2218182 2.2884848,1.8036364 L 2.2884848,1.8036364 C 2.3143435,2.3854547 2.3272727,2.999596 2.3272727,3.6460607 L 2.3272727,3.6460607 L2.3272727,17.958788 L 2.3272727,17.958788 C 2.3272727,18.605253 2.3143435,19.232325 2.2884848,19.84 L 2.2884848,19.84 C 2.2626262,20.447676 2.1850505,21.03596 2.0557575,21.604849 L 2.0557575,21.604849 C 2.3919191,21.553131 2.7474747,21.404444 3.1224241,21.158787 L 3.1224241,21.158787 C 3.4973738,20.91313 3.930505,20.531717 4.4218183,20.014545 L 4.4218183,20.014545 C 5.7664647,20.997171 7.473131,21.527273 9.541819,21.604849 L 9.541819,21.604849 C 9.541819,21.501415 9.535354,21.385052 9.522425,21.255758 L 9.522425,21.255758 C 9.509496,21.126465 9.490102,21.04889 9.464243,21.023031 L 9.464243,21.023031 C 9.3349495,20.790302 9.166868,20.57697 8.96,20.38303 L 8.96,20.38303 C 8.753132,20.18909 8.572122,20.066263 8.416969,20.014545 L 8.416969,20.014545 C 7.899798,19.859394 7.4602017,19.639597 7.0981817,19.355152 L 7.0981817,19.355152 C 6.7361617,19.070707 6.438788,18.74101 6.2060604,18.366062 L 6.2060604,18.366062 C 5.9733334,17.991112 5.798788,17.603231 5.6824245,17.202423 L 5.6824245,17.202423 C 5.5660605,16.801615 5.507879,16.407272 5.507879,16.019394 Z" style="fill: #000; stroke: none;" transform="translate(114 86) scale(1 -1)" />
</g>
</svg>
