<?xml version="1.0" encoding="UTF-8" standalone="no"?>
<svg xmlns="http://www.w3.org/2000/svg" xmlns:svg="http://www.w3.org/2000/svg">

<!--
    Clear: R: 255, G: 255, B: 255
-->

<g data-text="1st Floor" data-font="Asana Math" data-fontsize="32pt">
<path d="M17.834667,-0.12799999 L17.834667,1.152 L 17.834667,1.152 L15.616,1.28 L 15.616,1.28 C 13.269333,1.408 12.842667,1.8773333 12.842667,4.0959997 L 12.842667,4.0959997 L12.842667,29.866667 L 12.842667,29.866667 L2.56,25.514666 L 2.56,25.514666 L2.8586667,23.381332 L 2.8586667,23.381332 L9.258667,26.197332 L 9.258667,26.197332 L9.258667,4.0959997 L 9.258667,4.0959997 C 9.258667,1.8773333 8.789333,1.408 6.4853334,1.28 L 6.4853334,1.28 L4.0959997,1.152 L 4.0959997,1.152 L4.0959997,-0.12799999 L 4.0959997,-0.12799999 C 10.666667,0 10.666667,0 11.136,0 L 11.136,0 C 12.458667,0 17.152,-0.12799999 17.834667,-0.12799999 Z" style="fill: #000; stroke: none;" transform="translate(0 92) scale(1 -1)" />
<path d="M 1.7493333,6.101333 C 1.7493333,3.1573334 1.6213334,1.8773333 1.28,0.17066666 L 1.28,0.17066666 C 3.4986665,-0.55466664 5.162667,-0.85333335 7.1253333,-0.85333335 L 7.1253333,-0.85333335 C 12.714666,-0.85333335 16.682667,2.1333332 16.682667,6.3146667 L 16.682667,6.3146667 C 16.682667,13.696 4.5653334,9.728 4.5653334,15.274667 L 4.5653334,15.274667 C 4.5653334,17.407999 6.0586667,18.602667 8.661333,18.602667 L 8.661333,18.602667 C 11.5199995,18.602667 13.696,17.109333 13.696,15.104 L 13.696,15.104 L13.696,14.122666 L 13.696,14.122666 L14.890667,14.122666 L 14.890667,14.122666 C 14.933333,16.597334 14.976,17.621334 15.104,18.944 L 15.104,18.944 C 12.842667,19.712 11.306666,20.010666 9.557333,20.010666 L 9.557333,20.010666 C 4.608,20.010666 1.5786667,17.664 1.5786667,13.823999 L 1.5786667,13.823999 C 1.5786667,11.776 2.5173333,10.325334 4.48,9.429334 L 4.48,9.429334 C 9.514667,7.2106667 13.525333,8.32 13.525333,4.6506667 L 13.525333,4.6506667 C 13.525333,2.3466666 11.392,0.72533333 8.362666,0.72533333 L 8.362666,0.72533333 C 5.248,0.72533333 3.0293334,2.2186666 3.0293334,4.3519998 L 3.0293334,4.3519998 L3.0293334,6.101333 Z" style="fill: #000; stroke: none;" transform="translate(21 92) scale(1 -1)" />
<path d="M4.181333,16.298666 L4.181333,4.010667 L 4.181333,4.010667 C 4.181333,0.85333335 5.589333,-0.51199996 8.874666,-0.51199996 L 8.874666,-0.51199996 C 9.856,-0.51199996 10.88,-0.29866666 11.136,0 L 11.136,0 L13.184,2.2613332 L 13.184,2.2613332 L12.6293335,2.9866667 L 12.6293335,2.9866667 C 11.562667,2.3893332 10.922667,2.1759999 10.1119995,2.1759999 L 10.1119995,2.1759999 C 8.448,2.1759999 7.765333,3.0293334 7.765333,5.12 L 7.765333,5.12 L7.765333,16.298666 L 7.765333,16.298666 L13.226666,16.298666 L 13.226666,16.298666 L13.610666,18.602667 L 13.610666,18.602667 L7.765333,18.346666 L 7.765333,18.346666 L7.765333,19.968 L 7.765333,19.968 C 7.765333,21.76 7.8933334,23.296 8.234667,26.026667 L 8.234667,26.026667 L7.7226667,26.496 L 7.7226667,26.496 C 6.6986666,25.855999 5.418667,25.301332 4.0959997,24.874666 L 4.0959997,24.874666 C 4.224,23.594666 4.2666664,22.784 4.2666664,21.504 L 4.2666664,21.504 L4.2666664,18.517334 L 4.2666664,18.517334 L0.93866664,17.024 L 0.93866664,17.024 L0.93866664,16.128 Z" style="fill: #000; stroke: none;" transform="translate(39 92) scale(1 -1)" />
<path d="" style="fill: #000; stroke: none;" transform="translate(53 92) scale(1 -1)" />
<path d="M 9.216,13.952 C 10.410666,14.0373335 11.690666,14.08 13.610666,14.08 L 13.610666,14.08 C 16.768,14.08 17.92,13.952 18.688,13.568 L 18.688,13.568 L19.029333,12.501333 L 19.029333,12.501333 L19.242666,9.984 L 19.242666,9.984 L20.522667,9.984 L 20.522667,9.984 C 20.394667,13.952 20.394667,13.952 20.394667,14.72 L 20.394667,14.72 C 20.394667,15.402666 20.394667,15.402666 20.522667,19.669333 L 20.522667,19.669333 L19.242666,19.669333 L 19.242666,19.669333 L19.029333,17.450666 L 19.029333,17.450666 C 18.986666,17.066666 18.858667,16.682667 18.688,16.341333 L 18.688,16.341333 C 17.92,16 16.725332,15.872 13.909333,15.872 L 13.909333,15.872 C 12.117333,15.872 10.666667,15.914666 9.216,16 L 9.216,16 L9.216,27.392 L 9.216,27.392 C 10.496,27.690666 11.264,27.733334 13.781333,27.733334 L 13.781333,27.733334 C 15.829333,27.733334 18.218666,27.477333 19.541332,27.136 L 19.541332,27.136 C 20.565332,26.88 20.693333,26.666666 20.693333,25.685333 L 20.693333,25.685333 L20.693333,22.912 L 20.693333,22.912 L22.186666,22.912 L 22.186666,22.912 C 22.186666,25.472 22.4,27.52 22.869333,29.397333 L 22.869333,29.397333 C 20.778666,29.482666 19.498667,29.525333 17.664,29.525333 L 17.664,29.525333 L13.098666,29.482666 L 13.098666,29.482666 C 11.007999,29.397333 9.514667,29.397333 8.448,29.397333 L 8.448,29.397333 C 7.2106667,29.397333 7.2106667,29.397333 0.93866664,29.525333 L 0.93866664,29.525333 L0.93866664,28.245333 L 0.93866664,28.245333 L2.9866667,28.117332 L 2.9866667,28.117332 C 4.949333,27.989332 5.162667,27.647999 5.162667,24.277332 L 5.162667,24.277332 L5.162667,5.12 L 5.162667,5.12 C 5.162667,1.7493333 4.949333,1.408 2.9866667,1.28 L 2.9866667,1.28 L0.93866664,1.152 L 0.93866664,1.152 L0.93866664,-0.12799999 L 0.93866664,-0.12799999 C 3.4559999,-0.042666666 4.949333,0 7.1679997,0 L 7.1679997,0 C 9.386666,0 10.922667,-0.042666666 13.44,-0.12799999 L 13.44,-0.12799999 L13.44,1.152 L 13.44,1.152 L11.392,1.28 L 11.392,1.28 C 9.429334,1.408 9.216,1.7493333 9.216,5.12 Z" style="fill: #000; stroke: none;" transform="translate(64 92) scale(1 -1)" />
<path d="M0.9813333,28.202667 L3.3706667,28.202667 L 3.3706667,28.202667 C 4.1386666,28.202667 4.437333,27.733334 4.437333,26.453333 L 4.437333,26.453333 L4.437333,4.3519998 L 4.437333,4.3519998 C 4.437333,1.664 4.3093333,1.3653333 2.8586667,1.28 L 2.8586667,1.28 L0.89599997,1.152 L 0.89599997,1.152 L0.89599997,-0.12799999 L 0.89599997,-0.12799999 C 5.162667,0 5.162667,0 6.2293334,0 L 6.2293334,0 C 7.296,0 7.296,0 11.562667,-0.12799999 L 11.562667,-0.12799999 L11.562667,1.152 L 11.562667,1.152 L9.599999,1.28 L 9.599999,1.28 C 8.149333,1.3653333 8.021334,1.664 8.021334,4.3519998 L 8.021334,4.3519998 L8.021334,30.634666 L 8.021334,30.634666 L7.6373334,30.976 L 7.6373334,30.976 C 5.7599998,30.250666 4.3519998,29.909332 0.9813333,29.397333 Z" style="fill: #000; stroke: none;" transform="translate(88 92) scale(1 -1)" />
<path d="M 11.904,20.010666 C 5.6746664,20.010666 1.3653333,15.616 1.3653333,9.258667 L 1.3653333,9.258667 C 1.3653333,3.2426667 5.162667,-0.85333335 10.666667,-0.85333335 L 10.666667,-0.85333335 C 17.237333,-0.85333335 21.930666,3.712 21.930666,10.1119995 L 21.930666,10.1119995 C 21.930666,15.872 17.749332,20.010666 11.904,20.010666 Z M 11.136,18.602667 C 15.061333,18.602667 17.962666,14.3359995 17.962666,8.533333 L 17.962666,8.533333 C 17.962666,3.6266665 15.786667,0.55466664 12.330667,0.55466664 L 12.330667,0.55466664 C 8.149333,0.55466664 5.3333335,4.6506667 5.3333335,10.709333 L 5.3333335,10.709333 C 5.3333335,15.829333 7.3813334,18.602667 11.136,18.602667 Z" style="fill: #000; stroke: none;" transform="translate(100 92) scale(1 -1)" />
<path d="M 11.904,20.010666 C 5.6746664,20.010666 1.3653333,15.616 1.3653333,9.258667 L 1.3653333,9.258667 C 1.3653333,3.2426667 5.162667,-0.85333335 10.666667,-0.85333335 L 10.666667,-0.85333335 C 17.237333,-0.85333335 21.930666,3.712 21.930666,10.1119995 L 21.930666,10.1119995 C 21.930666,15.872 17.749332,20.010666 11.904,20.010666 Z M 11.136,18.602667 C 15.061333,18.602667 17.962666,14.3359995 17.962666,8.533333 L 17.962666,8.533333 C 17.962666,3.6266665 15.786667,0.55466664 12.330667,0.55466664 L 12.330667,0.55466664 C 8.149333,0.55466664 5.3333335,4.6506667 5.3333335,10.709333 L 5.3333335,10.709333 C 5.3333335,15.829333 7.3813334,18.602667 11.136,18.602667 Z" style="fill: #000; stroke: none;" transform="translate(123 92) scale(1 -1)" />
<path d="M0.9813333,17.066666 L2.56,17.066666 L 2.56,17.066666 C 4.2666664,17.066666 4.437333,16.768 4.437333,13.952 L 4.437333,13.952 L4.437333,4.3519998 L 4.437333,4.3519998 C 4.437333,1.664 4.3093333,1.3653333 2.8586667,1.28 L 2.8586667,1.28 L0.89599997,1.152 L 0.89599997,1.152 L0.89599997,-0.12799999 L 0.89599997,-0.12799999 C 3.968,-0.042666666 5.0773335,0 6.144,0 L 6.144,0 C 6.997333,0 6.997333,0 12.245334,-0.12799999 L 12.245334,-0.12799999 L12.245334,1.152 L 12.245334,1.152 L10.026667,1.28 L 10.026667,1.28 C 8.106667,1.408 8.021334,1.536 8.021334,4.3519998 L 8.021334,4.3519998 L8.021334,11.690666 L 8.021334,11.690666 C 8.021334,14.250667 9.728,16.383999 11.818666,16.383999 L 11.818666,16.383999 C 13.098666,16.383999 13.994666,15.786667 14.677333,14.421333 L 14.677333,14.421333 L15.573333,14.421333 L 15.573333,14.421333 L15.957334,19.541332 L 15.957334,19.541332 C 15.488,19.84 14.72,20.010666 13.952,20.010666 L 13.952,20.010666 C 12.672,20.010666 11.306666,19.328 10.410666,18.261333 L 10.410666,18.261333 L8.021334,15.4453335 L 8.021334,15.4453335 L8.021334,19.84 L 8.021334,19.84 L7.6373334,20.010666 L 7.6373334,20.010666 C 5.4613333,19.114666 3.2426667,18.517334 0.9813333,18.261333 Z" style="fill: #000; stroke: none;" transform="translate(146 92) scale(1 -1)" />
</g>
</svg>
