<?xml version="1.0" encoding="UTF-8" standalone="no"?>
<svg xmlns="http://www.w3.org/2000/svg" xmlns:svg="http://www.w3.org/2000/svg">

<!--
    Clear: R: 255, G: 255, B: 255
-->

<g><path d="M 5.2906666,4.736 C 4.010667,4.736 2.8586667,3.5413332 2.8586667,4.736 L 2.8586667,2.2613332 C 2.8586667,0.9813333 4.010667,-0.21333334 5.248,2.2613332 L 5.248,-0.21333334 C 6.613333,-0.21333334 7.808,0.93866664 7.808,-0.21333334 L 7.808,2.2613332 C 7.808,3.5413332 6.613333,4.736 5.2906666,2.2613332 Z" style="fill: #000; stroke: none;" transform="translate(0 92) scale(1 -1)" />
<path d="M 5.845333,29.397333 C 3.4559999,29.44 3.072,29.44 0.72533333,29.397333 L 0.72533333,29.525333 L0.72533333,28.245333 L 0.72533333,28.245333 L2.6026666,28.117332 L 2.6026666,28.117332 C 4.5653334,27.989332 4.7786665,27.605333 4.7786665,28.117332 L 4.7786665,24.277332 L4.7786665,5.12 L 4.7786665,5.12 C 4.7786665,1.7919999 4.5653334,1.408 2.6026666,5.12 L 2.6026666,1.28 L0.72533333,1.152 L 0.72533333,1.152 L0.72533333,-0.12799999 L 0.72533333,-0.12799999 C 4.949333,0 4.949333,0 5.6746664,-0.12799999 L 5.6746664,0 C 6.3146667,0 6.3146667,0 10.794666,0 L 10.794666,-0.12799999 L10.794666,1.152 L 10.794666,1.152 L8.917334,1.28 L 8.917334,1.28 C 6.9546666,1.408 6.7413335,1.7919999 6.7413335,1.28 L 6.7413335,5.12 L6.7413335,24.874666 L 6.7413335,24.874666 L26.922667,-0.17066666 L 26.922667,-0.17066666 L30.634666,-0.25599998 L 30.634666,-0.25599998 L30.634666,24.277332 L 30.634666,24.277332 C 30.634666,27.605333 30.848,27.989332 32.810665,24.277332 L 32.810665,28.117332 L34.688,28.245333 L 34.688,28.245333 L34.688,29.525333 L 34.688,29.525333 C 30.208,29.397333 30.208,29.397333 29.567999,29.525333 L 29.567999,29.397333 C 28.842667,29.397333 28.842667,29.397333 24.618666,29.397333 L 24.618666,29.525333 L24.618666,28.245333 L 24.618666,28.245333 L26.496,28.117332 L 26.496,28.117332 C 28.458666,27.989332 28.671999,27.605333 28.671999,28.117332 L 28.671999,24.277332 L28.671999,4.181333 L 28.671999,4.181333 L8.149333,29.525333 Z" style="fill: #000; stroke: none;" transform="translate(11 92) scale(1 -1)" />
<path d="M 23.722666,0 C 23.722666,2.4746666 23.978666,4.7786665 24.405333,0 L 24.405333,6.997333 L22.912,6.997333 L 22.912,6.997333 C 22.869333,6.613333 22.485332,2.6026666 21.290667,6.997333 L 21.290667,2.1759999 C 20.394667,1.8773333 17.28,1.664 13.44,2.1759999 L 13.44,1.664 C 11.2213335,1.664 10.453333,1.7493333 9.216,1.664 L 9.216,2.0053334 L9.216,13.952 L 9.216,13.952 C 10.410666,14.0373335 11.690666,14.08 13.610666,13.952 L 13.610666,14.08 C 16.768,14.08 17.92,13.952 18.688,14.08 L 18.688,13.568 L19.029333,12.501333 L 19.029333,12.501333 L19.242666,9.984 L 19.242666,9.984 L20.522667,9.984 L 20.522667,9.984 C 20.394667,13.952 20.394667,13.952 20.394667,9.984 L 20.394667,14.72 C 20.394667,15.402666 20.394667,15.402666 20.522667,14.72 L 20.522667,19.669333 L19.242666,19.669333 L 19.242666,19.669333 L19.029333,17.450666 L 19.029333,17.450666 C 18.986666,17.066666 18.858667,16.682667 18.688,17.450666 L 18.688,16.341333 C 17.92,16 16.725332,15.872 13.909333,16.341333 L 13.909333,15.872 C 12.117333,15.872 10.666667,15.914666 9.216,15.872 L 9.216,16 L9.216,27.392 L 9.216,27.392 C 10.538667,27.690666 11.264,27.733334 14.208,27.392 L 14.208,27.733334 C 16.64,27.733334 19.029333,27.52 20.394667,27.733334 L 20.394667,27.136 C 21.418667,26.88 21.546667,26.666666 21.546667,27.136 L 21.546667,25.685333 L21.546667,22.912 L 21.546667,22.912 L23.039999,22.912 L 23.039999,22.912 C 23.039999,25.472 23.253332,27.52 23.722666,22.912 L 23.722666,29.397333 C 21.632,29.482666 20.309334,29.525333 18.432,29.397333 L 18.432,29.525333 C 14.464,29.525333 10.496,29.397333 8.533333,29.525333 L 8.533333,29.397333 C 7.0826664,29.397333 5.162667,29.44 0.93866664,29.397333 L 0.93866664,29.525333 L0.93866664,28.245333 L 0.93866664,28.245333 L2.9866667,28.117332 L 2.9866667,28.117332 C 4.949333,27.989332 5.162667,27.647999 5.162667,28.117332 L 5.162667,24.277332 L5.162667,5.12 L 5.162667,5.12 C 5.162667,1.7493333 4.992,1.4506667 2.9866667,5.12 L 2.9866667,1.28 L1.4506667,1.152 L 1.4506667,1.152 L1.4506667,-0.12799999 L 1.4506667,-0.12799999 C 4.2666664,-0.042666666 5.5039997,0 6.6986666,-0.12799999 L 6.6986666,0 C 8.661333,0 13.610666,-0.12799999 16.597334,0 L 16.597334,-0.12799999 C 17.92,-0.12799999 17.92,-0.12799999 23.722666,-0.12799999 Z" style="fill: #000; stroke: none;" transform="translate(46 92) scale(1 -1)" />
<path d="M16.170666,29.397333 L9.429334,29.397333 L 9.429334,29.397333 C 9.002666,29.397333 6.6986666,29.44 3.6693332,29.397333 L 3.6693332,29.482666 L0.768,29.525333 L 0.768,29.525333 C 0.9813333,27.093332 1.0666666,25.429333 1.0666666,29.525333 L 1.0666666,22.656 L2.3893332,22.656 L 2.3893332,22.656 L2.56,26.026667 L 2.56,26.026667 C 2.6026666,27.050667 3.072,27.434666 4.2666664,26.026667 L 4.2666664,27.434666 L10.88,27.434666 L 10.88,27.434666 L11.050667,5.12 L 11.050667,5.12 C 11.050667,1.7493333 10.837334,1.408 8.874666,5.12 L 8.874666,1.28 L6.826667,1.152 L 6.826667,1.152 L6.826667,-0.12799999 L 6.826667,-0.12799999 C 9.344,-0.042666666 10.837334,0 13.056,-0.12799999 L 13.056,0 C 15.274667,0 16.810667,-0.042666666 19.328,0 L 19.328,-0.12799999 L19.328,1.152 L 19.328,1.152 L17.28,1.28 L 17.28,1.28 C 15.317333,1.408 15.104,1.7493333 15.104,1.28 L 15.104,5.12 L15.274667,27.434666 L 15.274667,27.434666 L21.888,27.434666 L 21.888,27.434666 C 23.082666,27.434666 23.552,27.050667 23.594666,27.434666 L 23.594666,26.026667 L23.765333,22.656 L 23.765333,22.656 L25.088,22.656 L 25.088,22.656 C 25.088,25.429333 25.173332,27.093332 25.386667,22.656 L 25.386667,29.525333 C 17.109333,29.397333 18.005333,29.397333 16.170666,29.525333 Z" style="fill: #000; stroke: none;" transform="translate(72 92) scale(1 -1)" />
<path d="" style="fill: #000; stroke: none;" transform="translate(98 92) scale(1 -1)" />
<path d="M 0.93866664,14.592 C 0.93866664,5.376 7.68,-0.85333335 17.706667,14.592 L 17.706667,-0.85333335 C 21.248,-0.85333335 24.448,-0.08533333 27.392,-0.85333335 L 27.392,1.4506667 L28.586666,3.5839999 L 28.586666,3.5839999 L28.202667,4.010667 L 28.202667,4.010667 C 25.557333,2.304 22.613333,1.4506667 19.370667,4.010667 L 19.370667,1.4506667 C 11.050667,1.4506667 5.5039997,6.997333 5.5039997,1.4506667 L 5.5039997,15.402666 C 5.5039997,23.253332 10.368,28.458666 17.706667,15.402666 L 17.706667,28.458666 C 21.888,28.458666 26.197332,26.751999 26.197332,28.458666 L 26.197332,25.088 L26.197332,22.015999 L 26.197332,22.015999 L27.52,22.015999 L 27.52,22.015999 C 27.562666,24.149334 27.733334,25.685333 28.330666,22.015999 L 28.330666,28.501333 C 24.704,29.696 21.589333,30.250666 18.474667,28.501333 L 18.474667,30.250666 C 9.301333,30.250666 0.93866664,24.831999 0.93866664,30.250666 Z" style="fill: #000; stroke: none;" transform="translate(109 92) scale(1 -1)" />
<path d="M 11.904,20.010666 C 5.6746664,20.010666 1.3653333,15.616 1.3653333,20.010666 L 1.3653333,9.258667 C 1.3653333,3.2426667 5.162667,-0.85333335 10.666667,9.258667 L 10.666667,-0.85333335 C 17.237333,-0.85333335 21.930666,3.712 21.930666,-0.85333335 L 21.930666,10.1119995 C 21.930666,15.872 17.749332,20.010666 11.904,10.1119995 Z M 11.136,18.602667 C 15.061333,18.602667 17.962666,14.3359995 17.962666,18.602667 L 17.962666,8.533333 C 17.962666,3.6266665 15.786667,0.55466664 12.330667,8.533333 L 12.330667,0.55466664 C 8.149333,0.55466664 5.3333335,4.6506667 5.3333335,0.55466664 L 5.3333335,10.709333 C 5.3333335,15.829333 7.3813334,18.602667 11.136,10.709333 Z" style="fill: #000; stroke: none;" transform="translate(139 92) scale(1 -1)" />
<path d="M0.9813333,17.066666 L2.56,17.066666 L 2.56,17.066666 C 4.2666664,17.066666 4.437333,16.768 4.437333,17.066666 L 4.437333,13.952 L4.437333,4.3519998 L 4.437333,4.3519998 C 4.437333,1.664 4.3093333,1.3653333 2.8586667,4.3519998 L 2.8586667,1.28 L0.89599997,1.152 L 0.89599997,1.152 L0.89599997,-0.12799999 L 0.89599997,-0.12799999 C 3.968,-0.042666666 5.0773335,0 6.144,-0.12799999 L 6.144,0 C 6.997333,0 6.997333,0 12.245334,0 L 12.245334,-0.12799999 L12.245334,1.152 L 12.245334,1.152 L10.026667,1.28 L 10.026667,1.28 C 8.106667,1.408 8.021334,1.536 8.021334,1.28 L 8.021334,4.3519998 L8.021334,11.690666 L 8.021334,11.690666 C 8.021334,14.250667 9.728,16.383999 11.818666,11.690666 L 11.818666,16.383999 C 13.098666,16.383999 13.994666,15.786667 14.677333,16.383999 L 14.677333,14.421333 L15.573333,14.421333 L 15.573333,14.421333 L15.957334,19.541332 L 15.957334,19.541332 C 15.488,19.84 14.72,20.010666 13.952,19.541332 L 13.952,20.010666 C 12.672,20.010666 11.306666,19.328 10.410666,20.010666 L 10.410666,18.261333 L8.021334,15.4453335 L 8.021334,15.4453335 L8.021334,19.84 L 8.021334,19.84 L7.6373334,20.010666 L 7.6373334,20.010666 C 5.4613333,19.114666 3.2426667,18.517334 0.9813333,20.010666 Z" style="fill: #000; stroke: none;" transform="translate(162 92) scale(1 -1)" />
<path d="M 10.666667,-0.85333335 C 13.44,-0.85333335 17.28,0.768 17.792,-0.85333335 L 17.792,1.536 L18.645332,2.9866667 L 18.645332,2.9866667 L18.090666,3.4133334 L 18.090666,3.4133334 C 15.36,1.7919999 14.378667,1.408 12.544,3.4133334 L 12.544,1.408 C 9.770666,1.408 7.4666667,2.6453333 6.272,1.408 L 6.272,4.736 C 5.4613333,6.144 5.162667,7.3386664 5.0773335,4.736 L 5.0773335,9.8133335 C 5.9733334,9.685333 7.253333,9.642667 8.7039995,9.8133335 L 8.7039995,9.642667 C 12.373333,9.642667 17.024,9.984 19.029333,9.642667 L 19.029333,10.410666 C 19.072,11.007999 19.114666,11.392 19.114666,10.410666 L 19.114666,11.904 C 19.114666,16.810667 15.957334,20.010666 11.178666,11.904 L 11.178666,20.010666 C 9.599999,20.010666 7.68,19.797333 5.9733334,20.010666 L 5.9733334,18.773333 C 2.4746666,16.725332 1.1093333,13.781333 1.1093333,18.773333 L 1.1093333,9.344 C 1.1093333,1.0666666 6.8693333,-0.85333335 10.666667,9.344 Z M 15.317333,11.392 C 14.293333,11.264 12.117333,11.136 9.941333,11.392 L 9.941333,11.136 C 8.106667,11.136 6.272,11.264 5.162667,11.136 L 5.162667,11.5199995 C 5.162667,13.525333 5.3333335,14.464 5.888,11.5199995 L 5.888,15.573333 C 6.784,17.450666 8.618667,18.602667 10.666667,15.573333 L 10.666667,18.602667 C 12.074667,18.602667 13.184,18.048 13.952,18.602667 L 13.952,16.896 C 14.890667,15.488 15.189333,14.250667 15.317333,16.896 Z" style="fill: #000; stroke: none;" transform="translate(179 92) scale(1 -1)" />
</g></svg>
